<svg xmlns="http://www.w3.org/2000/svg" width="20" height="21.429" viewBox="0 0 20 21.429">
  <g id="calendar_3_" data-name="calendar (3)" opacity="0.25">
    <path id="Shape" d="M18.929,21.429H1.071A1.077,1.077,0,0,1,0,20.357V2.5A1.077,1.077,0,0,1,1.071,1.428H2.5V1.071a1.071,1.071,0,0,1,2.143,0v.357H6.786V1.071a1.071,1.071,0,0,1,2.143,0v.357h2.143V1.071a1.071,1.071,0,0,1,2.143,0v.357h2.142V1.071a1.071,1.071,0,0,1,2.143,0v.357h1.429A1.077,1.077,0,0,1,20,2.5V20.357A1.077,1.077,0,0,1,18.929,21.429ZM.715,5.714V20.357a.357.357,0,0,0,.356.357H18.929a.358.358,0,0,0,.357-.357V5.714Zm.356-3.571A.357.357,0,0,0,.715,2.5V5H19.286V2.5a.358.358,0,0,0-.357-.357H17.5V2.5a1.071,1.071,0,0,1-2.143,0V2.143H13.215V2.5a1.071,1.071,0,0,1-2.143,0V2.143H8.929V2.5a1.071,1.071,0,0,1-2.143,0V2.143H4.643V2.5A1.071,1.071,0,0,1,2.5,2.5V2.143ZM16.429.715a.357.357,0,0,0-.357.356V2.5a.357.357,0,1,0,.715,0V1.071A.357.357,0,0,0,16.429.715Zm-4.286,0a.357.357,0,0,0-.357.356V2.5a.357.357,0,0,0,.715,0V1.071A.357.357,0,0,0,12.143.715Zm-4.286,0a.357.357,0,0,0-.357.356V2.5a.357.357,0,0,0,.715,0V1.071A.357.357,0,0,0,7.857.715Zm-4.286,0a.357.357,0,0,0-.357.356V2.5a.357.357,0,0,0,.715,0V1.071A.357.357,0,0,0,3.571.715Z"/>
  </g>
</svg>
