<svg xmlns="http://www.w3.org/2000/svg" width="20" height="20" viewBox="0 0 20 20"><defs><clipPath id="uvl7a"><path fill="#fff" d="M4.26 0h15.745v15.745H4.26z"/></clipPath><clipPath id="uvl7b"><path fill="#fff" d="M0 3.4h15.745v15.745H0z"/></clipPath></defs><g><g><g><path fill="#fff" d="M4.26 0h15.745v15.745H4.26z"/><path fill="none" stroke="#2e333d" stroke-miterlimit="50" stroke-width="2" d="M4.26 0v0h15.745v15.745H4.26v0z" clip-path="url(&quot;#uvl7a&quot;)"/></g><g><path fill="#fff" d="M0 3.4h15.745v15.745H0z"/><path fill="none" stroke="#2e333d" stroke-miterlimit="50" stroke-width="2" d="M0 3.4v0h15.745v15.745H0v0z" clip-path="url(&quot;#uvl7b&quot;)"/></g><g><path fill="#a8acb4" d="M4.26 5.11h1.277v1.277H4.26z"/></g><g><path fill="#a8acb4" d="M4.26 8.09h1.277v1.277H4.26z"/></g><g><path fill="#a8acb4" d="M4.26 11.06h1.277v1.277H4.26z"/></g><g><path fill="#a8acb4" d="M4.26 14.04h1.277v1.277H4.26z"/></g><g><path fill="#a8acb4" d="M6.81 14.04h1.277v1.277H6.81z"/></g><g><path fill="#a8acb4" d="M9.79 14.04h1.277v1.277H9.79z"/></g><g><path fill="#a8acb4" d="M12.34 14.04h1.277v1.277H12.34z"/></g></g></g></svg>