<svg xmlns="http://www.w3.org/2000/svg" width="18" viewBox="0 0 16 10"><g><g opacity=".56"><path d="M15.215 6.334a.283.283 0 0 1-.284-.28v-.28h.568v.56zm-1.87 3.167a1.08 1.08 0 0 1-1.086-1.072 1.08 1.08 0 0 1 1.085-1.072 1.08 1.08 0 0 1 1.086 1.072 1.08 1.08 0 0 1-1.086 1.072zm-8.819 0A1.08 1.08 0 0 1 3.441 8.43a1.08 1.08 0 0 1 1.085-1.072 1.08 1.08 0 0 1 1.086 1.072 1.08 1.08 0 0 1-1.086 1.072zm7.198-5.288V2.606h2.227l.409 1.607zm0-2.662h1.888c.304 0 .55.244.55.544v.016h-2.438zm3.156 2.687L14.466 2.6a.248.248 0 0 0 .198-.242v-.264c0-.573-.472-1.04-1.052-1.04h-1.888V.512A.515.515 0 0 0 11.207 0h-9.62a.515.515 0 0 0-.518.511v4.487c0 .137.112.248.25.248.139 0 .25-.111.25-.248V.511c0-.009.008-.016.018-.016h9.62c.009 0 .016.007.016.016v4.487c0 .137.112.248.25.248.14 0 .251-.111.251-.248v-.28h2.957c.364 0 .672.236.779.56h-.78c-.138 0-.25.111-.25.248v.528c0 .427.352.775.785.775h.284v1.089h-.655a1.588 1.588 0 0 0-1.5-1.056c-.693 0-1.284.442-1.499 1.056h-.12V6.054a.249.249 0 0 0-.251-.248c-.139 0-.25.111-.25.248v1.864H6.025a1.588 1.588 0 0 0-1.5-1.056c-.694 0-1.284.442-1.5 1.056h-1.44A.017.017 0 0 1 1.57 7.9v-.544h1.086c.138 0 .25-.11.25-.248a.249.249 0 0 0-.25-.247H.25c-.139 0-.251.11-.251.247s.112.248.25.248h.819V7.9c0 .282.232.512.518.512H2.94v.016c0 .864.711 1.567 1.586 1.567.875 0 1.587-.703 1.587-1.567v-.016h5.645v.016c0 .864.712 1.567 1.586 1.567.875 0 1.587-.703 1.587-1.567v-.016h.818c.139 0 .251-.111.251-.248v-2.64a1.31 1.31 0 0 0-1.12-1.287z"/></g><g opacity=".56"><path d="M4.528 7.92a.515.515 0 0 0-.518.511c0 .282.232.512.518.512.285 0 .517-.23.517-.512a.515.515 0 0 0-.517-.511z"/></g><g opacity=".56"><path d="M13.348 7.92a.515.515 0 0 0-.518.511c0 .282.232.512.518.512.285 0 .517-.23.517-.512a.515.515 0 0 0-.517-.511z"/></g><g opacity=".56"><path d="M10.402 6.86H6.66c-.139 0-.251.11-.251.247s.112.248.25.248h3.742c.138 0 .25-.111.25-.248a.249.249 0 0 0-.25-.247z"/></g><g opacity=".56"><path d="M3.987 5.81H.781c-.139 0-.251.11-.251.247s.112.248.25.248h3.207c.139 0 .25-.11.25-.248a.249.249 0 0 0-.25-.247z"/></g><g opacity=".56"><path d="M8.709 2.452a.253.253 0 0 0-.354 0l-2.228 2.2-1.16-1.144a.253.253 0 0 0-.354 0 .245.245 0 0 0 0 .35l1.337 1.32a.251.251 0 0 0 .354 0l2.405-2.376a.245.245 0 0 0 0-.35z"/></g></g></svg>