<?xml version="1.0" encoding="utf-8"?>
<!-- Generator: Adobe Illustrator 16.0.0, SVG Export Plug-In . SVG Version: 6.00 Build 0)  -->
<!DOCTYPE svg PUBLIC "-//W3C//DTD SVG 1.1//EN" "http://www.w3.org/Graphics/SVG/1.1/DTD/svg11.dtd">
<svg version="1.1" id="Layer_1" xmlns="http://www.w3.org/2000/svg" xmlns:xlink="http://www.w3.org/1999/xlink" x="0px" y="0px"
	 width="174px" height="50px" viewBox="0 0 174 50" enable-background="new 0 0 174 50" xml:space="preserve">
<g>
	<g>
		<path d="M27.277,24.195c0.147,4.975,4.385,7.37,7.739,7.333c3.059,0,5.527-1.511,6.817-4.091h2.837
			c-0.921,2.138-2.321,3.759-4.017,4.828c-1.658,1.068-3.611,1.621-5.638,1.621c-6.891,0-10.465-5.49-10.465-10.429
			c0-5.822,4.496-10.502,10.428-10.502c2.801,0,5.38,0.995,7.26,2.8c2.285,2.211,3.39,5.27,3.095,8.439H27.277z M42.644,22.021
			c-0.185-3.464-3.538-6.854-7.628-6.744c-4.275,0-7.444,3.132-7.702,6.744H42.644z"/>
		<path fill="#231F20" d="M50.231,25.743c0.442,4.533,3.759,5.491,5.454,5.491c2.837,0,5.454-2.174,5.454-5.196
			c0-3.832-3.279-4.679-6.449-5.711c-2.211-0.664-6.964-2.064-6.964-7.223c-0.074-4.828,3.943-7.518,8.107-7.518
			c3.39,0,7.296,1.879,7.738,7.039h-3.021c-0.332-1.769-1.216-4.459-4.827-4.459c-2.727,0-4.975,1.842-4.975,4.68
			c-0.037,3.317,2.653,4.127,6.781,5.528c2.579,0.995,6.633,2.432,6.633,7.443c0,4.459-3.354,7.997-8.438,7.997
			c-4.57,0-8.365-2.875-8.549-8.071H50.231z"/>
		<path fill="#231F20" d="M67.4,6.065h2.727v7.259v3.427c1.216-2.616,4.275-3.869,7.075-3.795c3.132,0,5.196,0.995,6.56,2.727
			c1.363,1.732,1.879,4.127,1.879,6.965v10.687h-2.69V22.758c0-2.137-0.442-3.943-1.438-5.232c-1.068-1.29-2.616-2.027-4.975-2.027
			c-2.174,0-3.795,0.774-4.827,1.953c-1.069,1.179-1.585,2.801-1.585,4.606v11.276H67.4V6.065z"/>
		<path fill="#231F20" d="M109.995,33.334h-2.727v-4.091c-1.548,2.985-4.569,4.644-8.106,4.644c-6.449,0-10.281-5.012-10.281-10.465
			c0-5.822,4.237-10.465,10.281-10.465c4.237,0,7.148,2.469,8.106,4.717v-4.164h2.727V33.334z M91.57,23.458
			c0.037,3.574,2.506,7.886,7.96,7.886c3.501,0,6.08-2.026,7.148-4.827c0.442-0.958,0.664-2.063,0.664-3.132
			c0.036-1.105-0.185-2.211-0.627-3.169c-1.105-2.727-3.759-4.753-7.26-4.753c-4.569,0-7.886,3.538-7.886,7.959V23.458z"/>
		<path fill="#231F20" d="M114.598,6.065h2.728v15.587l8.917-8.144h3.354l-9.544,8.696l9.986,11.129h-3.206l-9.507-10.539v10.539
			h-2.728V6.065z"/>
		<path fill="#231F20" d="M134.016,15.683h-3.906v-2.174h3.906V6.065h2.689v7.444h4.349v2.174h-4.349v17.651h-2.689V15.683z"/>
		<path fill="#231F20" d="M143.264,6.065h2.727V9.86h-2.727V6.065z M143.264,13.509h2.727v19.825h-2.727V13.509z"/>
	</g>
	<g>
		<path fill="#1A1A1A" d="M6.891,37.043h1.035l2.045,7.635l1.973-7.635h0.755l2.009,7.635l2.021-7.635h1.022l-2.521,9.011h-0.986
			l-1.924-7.318l-1.924,7.318H9.387L6.891,37.043z"/>
		<path fill="#1A1A1A" d="M18.771,43.034c0.049,1.644,1.449,2.435,2.557,2.423c1.011,0,1.827-0.499,2.253-1.352h0.938
			c-0.304,0.706-0.767,1.242-1.327,1.595c-0.548,0.354-1.193,0.536-1.863,0.536c-2.277,0-3.458-1.814-3.458-3.446
			c0-1.924,1.485-3.47,3.446-3.47c0.926,0,1.778,0.328,2.399,0.925c0.755,0.731,1.12,1.741,1.023,2.789H18.771z M23.849,42.315
			c-0.061-1.145-1.169-2.265-2.521-2.229c-1.412,0-2.459,1.035-2.545,2.229H23.849z"/>
		<path fill="#1A1A1A" d="M36.68,46.054h-0.865v-1.352c-0.462,0.864-1.339,1.534-2.703,1.534c-2.094,0-3.385-1.632-3.385-3.471
			c0-1.948,1.412-3.445,3.373-3.445c1.437,0,2.387,0.828,2.679,1.51v-1.389v-2.398h0.901V46.054z M30.616,42.778
			c0.012,1.315,0.925,2.618,2.63,2.618c0.73,0,1.4-0.293,1.863-0.768c0.475-0.487,0.755-1.156,0.73-1.887
			c0-0.743-0.28-1.376-0.755-1.839c-0.463-0.476-1.12-0.755-1.851-0.755c-1.51,0-2.618,1.145-2.618,2.617V42.778z"/>
		<path fill="#1A1A1A" d="M39.16,43.034c0.049,1.644,1.449,2.435,2.557,2.423c1.011,0,1.827-0.499,2.253-1.352h0.938
			c-0.304,0.706-0.767,1.242-1.327,1.595c-0.548,0.354-1.193,0.536-1.863,0.536c-2.277,0-3.458-1.814-3.458-3.446
			c0-1.924,1.485-3.47,3.446-3.47c0.926,0,1.778,0.328,2.399,0.925c0.755,0.731,1.12,1.741,1.023,2.789H39.16z M44.238,42.315
			c-0.061-1.145-1.169-2.265-2.521-2.229c-1.412,0-2.459,1.035-2.545,2.229H44.238z"/>
		<path fill="#1A1A1A" d="M49.654,41.146c0-0.694-0.462-1.084-1.12-1.084c-0.718,0-1.157,0.487-1.132,1.06
			c0.024,0.621,0.499,0.877,1.291,1.108c0.938,0.256,1.985,0.523,2.034,1.924c0.049,1.205-0.925,2.082-2.167,2.082
			c-1.06,0-2.229-0.67-2.241-2.046h0.889c0.037,0.901,0.706,1.303,1.364,1.303c0.755,0,1.278-0.56,1.266-1.229
			c-0.024-0.742-0.511-1.047-1.644-1.376c-0.938-0.28-1.668-0.657-1.692-1.692c0-1.182,0.938-1.875,2.045-1.875
			c0.913,0,1.936,0.499,1.997,1.826H49.654z"/>
		<path fill="#1A1A1A" d="M52.489,37.043h0.901v1.254h-0.901V37.043z M52.489,39.503h0.901v6.551h-0.901V39.503z"/>
		<path fill="#1A1A1A" d="M61.998,45.299c0,1.242-0.402,2.033-0.974,2.581c-0.646,0.634-1.595,1.011-2.484,1.011
			c-1.632,0-2.825-0.938-3.239-2.118h1.035c0.158,0.279,0.39,0.597,0.779,0.864c0.475,0.341,1.035,0.475,1.449,0.475
			c1.254,0,2.533-0.974,2.533-2.605v-0.84c-0.463,0.925-1.376,1.57-2.643,1.57c-2.045,0-3.421-1.559-3.421-3.446
			c0-1.96,1.424-3.47,3.421-3.47c1.291,0,2.289,0.73,2.654,1.534v-1.352h0.889V45.299z M55.934,42.778
			c0,1.327,0.938,2.618,2.63,2.618c0.743,0,1.376-0.28,1.839-0.755c0.451-0.476,0.718-1.133,0.73-1.852
			c0-0.548-0.183-1.193-0.597-1.717c-0.402-0.523-1.059-0.913-1.997-0.913c-1.437,0-2.606,1.071-2.606,2.605V42.778z"/>
		<path fill="#1A1A1A" d="M64.04,39.503h0.853c0,0.365,0,0.73-0.012,1.169c0.377-0.853,1.267-1.376,2.436-1.352
			c2.033,0.024,2.752,1.412,2.752,3.008v3.726h-0.889v-3.543c0-1.413-0.633-2.375-2.106-2.351c-1.352,0.013-2.131,0.828-2.131,2.191
			v3.702H64.04V39.503z"/>
		<path fill="#1A1A1A" d="M73.475,46.054h-0.95v-1.34h0.95V46.054z"/>
		<path fill="#1A1A1A" d="M79.281,42.888l-2.898-5.845h1.096l2.313,4.871l2.301-4.871h1.096l-2.898,5.845v3.166h-1.011V42.888z"/>
		<path fill="#1A1A1A" d="M82.871,42.766c0-1.826,1.364-3.445,3.47-3.445c2.119,0,3.483,1.619,3.483,3.458s-1.364,3.446-3.483,3.446
			c-2.106,0-3.47-1.607-3.47-3.446V42.766z M83.76,42.79c0,1.486,1.132,2.606,2.582,2.606c1.461,0,2.582-1.12,2.582-2.618
			s-1.121-2.618-2.582-2.618c-1.449,0-2.582,1.12-2.582,2.618V42.79z"/>
		<path fill="#1A1A1A" d="M97.504,46.054h-0.853v-1.169c-0.365,0.853-1.254,1.363-2.423,1.352c-2.045-0.036-2.764-1.425-2.764-3.02
			v-3.714h0.889v3.543c0,1.413,0.633,2.362,2.106,2.351c1.364-0.013,2.144-0.828,2.144-2.192v-3.701h0.9V46.054z"/>
		<path fill="#1A1A1A" d="M109.749,43.838c-0.426,1.388-1.704,2.398-3.275,2.398c-2.216,0-3.519-1.705-3.519-3.458
			c0-1.937,1.474-3.458,3.458-3.458c1.474,0,2.886,0.877,3.336,2.447h-0.925c-0.414-1.108-1.449-1.619-2.375-1.619
			c-0.767,0-1.303,0.231-1.851,0.742c-0.438,0.427-0.742,1.133-0.742,1.888c0,1.546,1.168,2.618,2.581,2.618
			c1.254-0.013,2.095-0.768,2.374-1.559H109.749z"/>
		<path fill="#1A1A1A" d="M117.369,46.054h-0.853v-1.169c-0.365,0.853-1.254,1.363-2.423,1.352c-2.046-0.036-2.765-1.425-2.765-3.02
			v-3.714h0.889v3.543c0,1.413,0.634,2.362,2.107,2.351c1.363-0.013,2.143-0.828,2.143-2.192v-3.701h0.901V46.054z"/>
		<path fill="#1A1A1A" d="M122.371,41.146c0-0.694-0.463-1.084-1.12-1.084c-0.719,0-1.156,0.487-1.133,1.06
			c0.024,0.621,0.5,0.877,1.291,1.108c0.938,0.256,1.985,0.523,2.033,1.924c0.049,1.205-0.925,2.082-2.167,2.082
			c-1.06,0-2.229-0.67-2.24-2.046h0.889c0.036,0.901,0.706,1.303,1.363,1.303c0.756,0,1.279-0.56,1.267-1.229
			c-0.024-0.742-0.511-1.047-1.644-1.376c-0.938-0.28-1.668-0.657-1.692-1.692c0-1.182,0.938-1.875,2.046-1.875
			c0.913,0,1.936,0.499,1.996,1.826H122.371z"/>
		<path fill="#1A1A1A" d="M125.717,40.221h-1.29v-0.718h1.29v-2.46h0.89v2.46h1.437v0.718h-1.437v5.833h-0.89V40.221z"/>
		<path fill="#1A1A1A" d="M128.565,42.766c0-1.826,1.364-3.445,3.471-3.445c2.118,0,3.482,1.619,3.482,3.458
			s-1.364,3.446-3.482,3.446c-2.106,0-3.471-1.607-3.471-3.446V42.766z M129.454,42.79c0,1.486,1.133,2.606,2.582,2.606
			c1.461,0,2.581-1.12,2.581-2.618s-1.12-2.618-2.581-2.618c-1.449,0-2.582,1.12-2.582,2.618V42.79z"/>
		<path fill="#1A1A1A" d="M137.172,39.503h0.853v1.035c0.414-0.828,1.327-1.218,2.069-1.218c0.683,0,1.327,0.219,1.79,0.742
			c0.171,0.171,0.39,0.609,0.427,0.683c0.097-0.183,0.23-0.438,0.475-0.694c0.426-0.45,1.071-0.73,1.802-0.73
			c0.67,0,1.315,0.194,1.766,0.657c0.572,0.572,0.743,1.278,0.743,2.436v3.641h-0.901v-3.604c0-0.693-0.109-1.314-0.487-1.741
			c-0.268-0.341-0.682-0.548-1.303-0.548c-0.572,0-1.132,0.231-1.437,0.682c-0.329,0.463-0.39,0.828-0.39,1.571v3.641h-0.901v-3.641
			c0.024-0.73-0.085-1.157-0.341-1.559c-0.305-0.427-0.767-0.682-1.437-0.694c-0.609-0.024-1.12,0.28-1.389,0.67
			c-0.279,0.377-0.438,0.877-0.438,1.57v3.653h-0.9V39.503z"/>
		<path fill="#1A1A1A" d="M149.113,37.043h0.9v1.254h-0.9V37.043z M149.113,39.503h0.9v6.551h-0.9V39.503z"/>
		<path fill="#1A1A1A" d="M151.352,45.396l3.629-5.176h-3.482v-0.718h4.493v0.73l-3.556,5.102h3.689v0.719h-4.773V45.396z"/>
		<path fill="#1A1A1A" d="M157.877,43.034c0.049,1.644,1.449,2.435,2.558,2.423c1.011,0,1.826-0.499,2.252-1.352h0.938
			c-0.304,0.706-0.767,1.242-1.327,1.595c-0.548,0.354-1.193,0.536-1.862,0.536c-2.277,0-3.458-1.814-3.458-3.446
			c0-1.924,1.485-3.47,3.445-3.47c0.926,0,1.778,0.328,2.399,0.925c0.755,0.731,1.12,1.741,1.022,2.789H157.877z M162.955,42.315
			c-0.062-1.145-1.169-2.265-2.521-2.229c-1.413,0-2.46,1.035-2.545,2.229H162.955z"/>
	</g>
</g>
<g>
	<path d="M161.194,12.138c0,3.347-2.628,5.975-6.048,5.975c-3.383,0-6.083-2.628-6.083-5.975c0-3.276,2.7-5.903,6.083-5.903
		C158.566,6.235,161.194,8.862,161.194,12.138z M150.575,12.138c0,2.627,1.944,4.715,4.607,4.715c2.592,0,4.5-2.088,4.5-4.68
		c0-2.627-1.908-4.751-4.536-4.751C152.52,7.422,150.575,9.546,150.575,12.138z M154.211,15.233h-1.368V9.33
		c0.54-0.108,1.296-0.18,2.269-0.18c1.115,0,1.619,0.18,2.052,0.432c0.323,0.252,0.575,0.72,0.575,1.296
		c0,0.648-0.504,1.152-1.224,1.368v0.072c0.576,0.216,0.9,0.648,1.08,1.44c0.18,0.9,0.288,1.26,0.432,1.476h-1.476
		c-0.18-0.216-0.288-0.756-0.468-1.439c-0.108-0.648-0.468-0.936-1.224-0.936h-0.648V15.233z M154.247,11.886h0.647
		c0.756,0,1.368-0.252,1.368-0.864c0-0.54-0.396-0.9-1.26-0.9c-0.36,0-0.612,0.036-0.756,0.072V11.886z"/>
</g>
<g>
</g>
<g>
</g>
<g>
</g>
<g>
</g>
<g>
</g>
<g>
</g>
</svg>
