<svg xmlns="http://www.w3.org/2000/svg" width="12" height="13" viewBox="0 0 12 13"><g><g><g><path d="M9.72 11.987a1.56 1.56 0 0 1-1.558-1.559c0-.86.698-1.559 1.558-1.559a1.56 1.56 0 0 1 0 3.117zm-7.427-4.08A1.56 1.56 0 0 1 .735 6.348c0-.86.699-1.559 1.558-1.559.86 0 1.56.7 1.56 1.56 0 .859-.702 1.558-1.56 1.558zM9.72.715c.86 0 1.559.699 1.559 1.558a1.56 1.56 0 0 1-1.559 1.56 1.56 1.56 0 0 1-1.558-1.56c0-.86.701-1.558 1.558-1.558zm0 7.445c-.73 0-1.382.348-1.798.886l-3.49-1.949a2.278 2.278 0 0 0-.002-1.5L7.916 3.65c.414.54 1.068.892 1.802.892 1.25 0 2.27-1.018 2.27-2.271A2.273 2.273 0 0 0 9.718 0a2.273 2.273 0 0 0-2.142 3.022L4.092 4.97a2.26 2.26 0 0 0-1.801-.892A2.274 2.274 0 0 0 .02 6.348a2.271 2.271 0 1 0 4.077 1.377l3.487 1.949a2.26 2.26 0 0 0-.132.757c0 1.25 1.018 2.27 2.27 2.27a2.273 2.273 0 0 0 2.272-2.27c0-1.253-1.021-2.271-2.274-2.271z"/></g></g></g></svg>