<svg xmlns="http://www.w3.org/2000/svg" width="14" height="15" viewBox="0 0 14 15"><g><g opacity=".56"><path d="M7.218 14.402V6.92l1.513-.732a.22.22 0 0 0-.19-.395l-1.542.746-.606-.294a.22.22 0 0 0-.19.395l.577.28v7.482l-6.343-3.07V3.85l4.83 2.338a.217.217 0 0 0 .293-.102.22.22 0 0 0-.102-.293L.722 3.5l2.173-1.052 6.571 3.18.003.004v2.632a.22.22 0 0 0 .314.197l1.637-.792a.22.22 0 0 0 .123-.197V4.827l2.018-.977v7.482zm3.888-9.364v2.297l-1.2.58V5.62zM4.69 1.588l6.268 3.034-1.284.622L3.41 2.21zM6.999.464L13.276 3.5l-1.82.88a.217.217 0 0 0-.036-.023L5.185 1.341zm6.875 2.84L7.094.022a.218.218 0 0 0-.19 0L.124 3.303A.22.22 0 0 0 0 3.501v7.969c0 .084.048.16.124.197l6.78 3.282a.218.218 0 0 0 .19 0l6.78-3.282a.22.22 0 0 0 .124-.197V3.5a.22.22 0 0 0-.123-.197z"/></g><g opacity=".56"><path d="M2.239 10.483l-.995-.481a.22.22 0 0 0-.19.395l.995.481a.217.217 0 0 0 .292-.102.22.22 0 0 0-.102-.293z"/></g><g opacity=".56"><path d="M3.163 9.886l-1.91-.924a.22.22 0 0 0-.19.395l1.91.924a.218.218 0 0 0 .292-.102.22.22 0 0 0-.102-.293z"/></g></g></svg>