<svg xmlns="http://www.w3.org/2000/svg" width="25" height="17" viewBox="0 0 25 17"><g><g opacity=".73"><g opacity="-.73"><path fill="#6f757c" d="M23.912 14.055c0 .86-.7 1.56-1.56 1.56H2.6c-.86 0-1.56-.7-1.56-1.56V2.62c0-.86.7-1.56 1.56-1.56h19.753c.86 0 1.56.7 1.56 1.56v11.436zM22.352.02H2.6A2.603 2.603 0 0 0 0 2.62v11.435c0 1.433 1.166 2.6 2.6 2.6h19.752c1.433 0 2.6-1.167 2.6-2.6V2.62c0-1.433-1.167-2.599-2.6-2.599z"/></g><g opacity="-.73"><path fill="#6f757c" d="M1.04 6.261V4.177h22.872v2.084zM24.43 3.14H.52a.52.52 0 0 0-.52.52v3.119c0 .287.233.52.52.52H24.43a.52.52 0 0 0 .52-.52v-3.12a.52.52 0 0 0-.52-.519z"/></g><g opacity="-.73"><path fill="#6f757c" d="M9.878 10.41H3.64a.52.52 0 0 0 0 1.04h6.238a.52.52 0 0 0 0-1.04z"/></g><g opacity="-.73"><path fill="#6f757c" d="M9.878 12.49H3.64a.52.52 0 0 0 0 1.04h6.238a.52.52 0 0 0 0-1.04z"/></g><g opacity="-.73"><path fill="#6f757c" d="M20.789 11.97a.52.52 0 0 1-.52.519h-1.04a.52.52 0 0 1-.52-.52v-1.04a.52.52 0 0 1 .52-.52h1.04a.52.52 0 0 1 .52.52zm-.52-2.6h-1.04c-.86 0-1.559.7-1.559 1.56v1.04c0 .859.7 1.559 1.56 1.559h1.04c.859 0 1.559-.7 1.559-1.56v-1.04c0-.86-.7-1.559-1.56-1.559z"/></g></g></g></svg>