<svg xmlns="http://www.w3.org/2000/svg" width="24.952" height="16.634" viewBox="0 0 24.952 16.634">
  <g id="credit-card" transform="translate(0 -0.016)" opacity="0.73">
    <path id="Shape" d="M22.352,16.634H2.6a2.6,2.6,0,0,1-2.6-2.6V2.6A2.6,2.6,0,0,1,2.6,0H22.352a2.6,2.6,0,0,1,2.6,2.6V14.036A2.6,2.6,0,0,1,22.352,16.634ZM2.6,1.04A1.561,1.561,0,0,0,1.04,2.6V14.036A1.561,1.561,0,0,0,2.6,15.594H22.352a1.561,1.561,0,0,0,1.559-1.559V2.6a1.561,1.561,0,0,0-1.559-1.56Z" transform="translate(0 0.016)" fill="#6f757c"/>
    <path id="Shape-2" data-name="Shape" d="M24.431,4.159H.52A.521.521,0,0,1,0,3.639V.52A.521.521,0,0,1,.52,0H24.431a.521.521,0,0,1,.52.52V3.639A.521.521,0,0,1,24.431,4.159ZM1.04,1.04V3.119H23.911V1.04Z" transform="translate(0 3.135)" fill="#6f757c"/>
    <path id="Path" d="M6.758,0H.52a.52.52,0,1,0,0,1.04H6.758a.52.52,0,1,0,0-1.04Z" transform="translate(3.119 10.413)" fill="#6f757c"/>
    <path id="Path-2" data-name="Path" d="M6.758,0H.52a.52.52,0,0,0,0,1.04H6.758a.52.52,0,1,0,0-1.04Z" transform="translate(3.119 12.492)" fill="#6f757c"/>
    <path id="Shape-3" data-name="Shape" d="M2.6,4.159H1.56A1.561,1.561,0,0,1,0,2.6V1.56A1.561,1.561,0,0,1,1.56,0H2.6a1.561,1.561,0,0,1,1.56,1.56V2.6A1.561,1.561,0,0,1,2.6,4.159ZM1.56,1.04a.521.521,0,0,0-.52.52V2.6a.521.521,0,0,0,.52.52H2.6a.52.52,0,0,0,.519-.52V1.56A.52.52,0,0,0,2.6,1.04Z" transform="translate(17.674 9.373)" fill="#6f757c"/>
  </g>
</svg>
