<svg xmlns="http://www.w3.org/2000/svg" width="77" height="49" viewBox="0 0 77 49"><defs><clipPath id="uwm8a"><path fill="#fff" d="M56 7V0h7v7zm3.5-2a1.5 1.5 0 1 0 0-3 1.5 1.5 0 0 0 0 3z"/></clipPath><clipPath id="uwm8b"><path fill="#fff" d="M0 31v-9h9v9zm3-3h3v-3H3z"/></clipPath></defs><g><g><g><g><path fill="#40c559" d="M37.458 48.916c11.851 0 21.458-9.607 21.458-21.458C58.916 15.608 49.31 6 37.458 6 25.608 6 16 15.607 16 27.458c0 11.851 9.607 21.458 21.458 21.458z"/></g><g><path fill="#34a149" d="M58.912 27.454c0 11.802-9.656 21.458-21.458 21.458-6.84 0-12.875-3.084-16.764-8.047 3.621 2.95 8.315 4.694 13.411 4.694 11.802 0 21.458-9.656 21.458-21.458 0-5.096-1.743-9.79-4.694-13.411 4.963 3.89 8.047 9.924 8.047 16.764z"/></g><g><path fill="#fff" d="M49.123 21.29L35.176 36.577a2.291 2.291 0 0 1-3.487 0l-5.901-6.571a2.48 2.48 0 0 1 .134-3.353 2.48 2.48 0 0 1 3.353.134l4.157 4.694 12.204-13.277c.94-.94 2.414-1.073 3.353-.134.939.804.939 2.414.134 3.218z"/></g></g><g transform="rotate(13 72.5 16.5)"><path fill="none" stroke="#ffbc3c" stroke-linecap="round" stroke-miterlimit="20" stroke-width="2" d="M69.55 14.825s4.67-1.035 6.292 2.686"/></g><g transform="rotate(201 7 5.5)"><path fill="none" stroke="#ff693c" stroke-linecap="round" stroke-miterlimit="20" stroke-width="2" d="M3 4.225S7.67 3.19 9.292 6.911"/></g><g transform="rotate(-249 62.5 46)"><path fill="none" stroke="#ff693c" stroke-linecap="round" stroke-miterlimit="20" stroke-width="2" d="M60 45.154s3.186-.707 4.292 1.832"/></g><g><path fill="none" stroke="#3ca2ff" stroke-linecap="round" stroke-miterlimit="20" stroke-width="4" d="M59.5 5a1.5 1.5 0 1 0 0-3 1.5 1.5 0 0 0 0 3z" clip-path="url(&quot;#uwm8a&quot;)"/></g><g transform="rotate(23 4.5 26.5)"><path fill="none" stroke="#3c95ff" stroke-linecap="round" stroke-miterlimit="20" stroke-width="4" d="M3 25v0h3v3H3v0z" clip-path="url(&quot;#uwm8b&quot;)"/></g></g></g></svg>