<svg id="cancel_1_" data-name="cancel (1)" xmlns="http://www.w3.org/2000/svg" width="41.918" height="41.918" viewBox="0 0 41.918 41.918">
  <circle id="Oval" cx="20.959" cy="20.959" r="20.959" transform="translate(0 0)" fill="#e24c4b"/>
  <path id="Path" d="M37.333,16.374A21.021,21.021,0,0,1,16.374,37.333,20.624,20.624,0,0,1,0,29.474a20.679,20.679,0,0,0,13.1,4.585A21.021,21.021,0,0,0,34.058,13.1,20.679,20.679,0,0,0,29.474,0,20.623,20.623,0,0,1,37.333,16.374Z" transform="translate(4.585 4.585)" fill="#d1403f"/>
  <path id="Path-2" data-name="Path" d="M19.715,19.715a2.056,2.056,0,0,1-2.882,0l-6.681-6.681L3.471,19.715a2.056,2.056,0,0,1-2.882,0,2.056,2.056,0,0,1,0-2.882L7.27,10.152.589,3.471a2.056,2.056,0,0,1,0-2.882,2.056,2.056,0,0,1,2.882,0L10.152,7.27,16.833.589a2.056,2.056,0,0,1,2.882,0,2.056,2.056,0,0,1,0,2.882l-6.681,6.681,6.681,6.681A2.056,2.056,0,0,1,19.715,19.715Z" transform="translate(10.807 10.807)" fill="#fff"/>
</svg>
