<svg id="clock_3_" data-name="clock (3)" xmlns="http://www.w3.org/2000/svg" width="49" height="49" viewBox="0 0 49 49">
  <path id="Shape" d="M24.5,49A24.5,24.5,0,0,1,7.176,7.176,24.5,24.5,0,0,1,41.824,41.824,24.34,24.34,0,0,1,24.5,49Zm0-47.659A23.16,23.16,0,1,0,47.66,24.5,23.186,23.186,0,0,0,24.5,1.34Z"/>
  <path id="Shape-2" data-name="Shape" d="M20.5,41A20.5,20.5,0,0,1,6,6,20.5,20.5,0,0,1,35,35,20.366,20.366,0,0,1,20.5,41Zm0-39.672A19.171,19.171,0,1,0,39.671,20.5,19.194,19.194,0,0,0,20.5,1.328Z" transform="translate(4 4)"/>
  <path id="Path" d="M.5,4A.568.568,0,0,0,1,3.383V.617A.568.568,0,0,0,.5,0,.568.568,0,0,0,0,.617V3.383A.568.568,0,0,0,.5,4Z" transform="translate(24 7)"/>
  <path id="Path-2" data-name="Path" d="M.5,0A.568.568,0,0,0,0,.618V3.382A.568.568,0,0,0,.5,4,.568.568,0,0,0,1,3.382V.618A.568.568,0,0,0,.5,0Z" transform="translate(24 38)"/>
  <path id="Path-3" data-name="Path" d="M2.009.17.17,2.009a.581.581,0,0,0,.821.821L2.83.991A.581.581,0,0,0,2.009.17Z" transform="translate(34 12)"/>
  <path id="Path-4" data-name="Path" d="M2.009.17.17,2.009a.581.581,0,1,0,.821.821L2.83.991A.581.581,0,0,0,2.009.17Z" transform="translate(12 34)"/>
  <path id="Path-5" data-name="Path" d="M3.383,0H.617A.568.568,0,0,0,0,.5.568.568,0,0,0,.617,1H3.383A.568.568,0,0,0,4,.5.568.568,0,0,0,3.383,0Z" transform="translate(38 24)"/>
  <path id="Path-6" data-name="Path" d="M3.383,0H.617A.568.568,0,0,0,0,.5.568.568,0,0,0,.617,1H3.383A.568.568,0,0,0,4,.5.568.568,0,0,0,3.383,0Z" transform="translate(7 24)"/>
  <path id="Path-7" data-name="Path" d="M.991.17A.581.581,0,0,0,.17.991L2.009,2.83a.581.581,0,0,0,.821-.821Z" transform="translate(34 34)"/>
  <path id="Path-8" data-name="Path" d="M.991.17A.581.581,0,1,0,.17.991L2.009,2.83a.581.581,0,1,0,.821-.821Z" transform="translate(12 12)"/>
  <path id="Shape-3" data-name="Shape" d="M9.735,20a2.278,2.278,0,0,1-1.6-.648L4.323,15.63a3.879,3.879,0,0,1-.561.041A3.752,3.752,0,0,1,.287,13.4,3.619,3.619,0,0,1,1.526,9.04V2.212A2.242,2.242,0,0,1,3.791,0,2.242,2.242,0,0,1,6.056,2.212V9.04A3.585,3.585,0,0,1,7.525,12.5l3.811,3.722a2.176,2.176,0,0,1,0,3.128A2.278,2.278,0,0,1,9.735,20ZM7.008,13.9a3.781,3.781,0,0,1-1.253,1.224L9.107,18.4a.9.9,0,0,0,1.254,0,.853.853,0,0,0,0-1.225ZM3.791,9.644a2.341,2.341,0,1,0,0,4.681,2.341,2.341,0,1,0,0-4.681Zm0-1.344a3.741,3.741,0,0,1,.887.107V2.212a.887.887,0,0,0-1.773,0V8.406A3.744,3.744,0,0,1,3.791,8.3Z" transform="translate(21 13)"/>
</svg>
