<svg xmlns="http://www.w3.org/2000/svg" width="50" height="44" viewBox="0 0 50 44">
 	<g style="transform: scale(0.9);transform-origin: center bottom;">
	  <g id="purse" transform="translate(0 -0.889)">
	    <path id="Shape" d="M42.432,44H4.64A4.625,4.625,0,0,1,0,39.429a.205.205,0,0,1,0-.023V36.5a.733.733,0,0,1,1.465,0v2.891a.055.055,0,0,0,0,.007.044.044,0,0,1,0,.005A3.162,3.162,0,0,0,4.64,42.549H42.432a3.162,3.162,0,0,0,3.174-3.143V34.329H37.543a.707.707,0,0,1-.076,0l-.01,0-.013,0-.06-.011-.012,0-.012,0-.009,0-.048-.015-.023-.009c-.02-.007-.039-.016-.057-.025l-.006,0-.013-.006a.761.761,0,0,1-.068-.04l-.02-.015c-.015-.011-.03-.023-.044-.034l-.024-.022-.013-.013-.026-.026L37,34.083l-.009-.01c-.021-.026-.037-.046-.051-.067l-3.906-5.8a.7.7,0,0,1-.069-.128c-.006-.016-.013-.033-.018-.05l0-.008,0-.008q-.008-.027-.014-.054l0-.007,0-.007a.485.485,0,0,1-.007-.05v-.006a.081.081,0,0,1,0-.014c0-.009,0-.018,0-.027v-.014s0-.009,0-.014,0-.011,0-.016,0-.01,0-.015,0-.011,0-.015v-.014c0-.009,0-.018,0-.027a.086.086,0,0,1,0-.015V27.71a.466.466,0,0,1,.007-.049l0-.007,0-.007q.005-.027.014-.054l0-.008,0-.008a.476.476,0,0,1,.018-.05.694.694,0,0,1,.068-.128l3.906-5.8c.014-.021.029-.04.043-.059s.019-.021.029-.03l.01-.011.01-.011.038-.033.008-.007.008-.007c.012-.01.024-.019.037-.028l.01-.007.01-.007.032-.02.012-.007.018-.01.019-.009.006,0,.015-.007.025-.012.019-.006.006,0a.383.383,0,0,1,.043-.015l.013,0a.561.561,0,0,1,.056-.014l.011,0c.023,0,.045-.007.068-.01l.064,0h8.059V16.2a3.163,3.163,0,0,0-3.171-3.143H4.64a4.641,4.641,0,0,1-3.174-1.248V33.6A.733.733,0,0,1,0,33.6V8.46s0,0,0-.007,0-.006,0-.008A4.624,4.624,0,0,1,4.64,3.866H7L7.835.549l0-.007,0,0,0-.012,0-.012,0-.012L7.854.488,7.862.466c0-.012.009-.022.014-.033l0,0A.229.229,0,0,1,7.891.4L7.9.383,7.908.367,7.915.356,7.926.338A.267.267,0,0,1,7.942.314L7.948.305,7.957.293,7.966.281,7.994.248,8.012.228,8.043.2,8.053.189,8.062.18,8.08.166,8.1.151,8.11.142,8.117.137,8.156.112,8.176.1,8.2.084,8.216.077,8.239.067,8.28.049,8.3.043,8.3.04,8.332.031l.014,0,.013,0,.013,0L8.414.012l.028,0,.042,0,.03,0h.073l.04,0,.017,0,.017,0L8.7.016l.012,0,.012,0,.01,0,.01,0L22.317,3.867H42.432A4.621,4.621,0,0,1,47.071,8.46v9.913H47.8A2.19,2.19,0,0,1,50,20.548V32.153a2.189,2.189,0,0,1-2.2,2.175h-.733v5.078A4.621,4.621,0,0,1,42.432,44ZM37.94,22.724,34.522,27.8l3.418,5.076H47.8a.73.73,0,0,0,.733-.725V22.6a2.215,2.215,0,0,1-.7.124H37.94Zm9.131-2.9v1.451H47.8a.725.725,0,1,0,0-1.45ZM42.432,11.6a4.64,4.64,0,0,1,3.173,1.248V8.46a3.162,3.162,0,0,0-3.173-3.143H27.444l8.548,2.418h5.463a.725.725,0,1,1,0,1.451H4.64a.725.725,0,1,1,0-1.451H6.021l.61-2.418H4.64a3.143,3.143,0,1,0,0,6.286H42.432ZM9.072,1.628,7.53,7.735H30.659L22,5.285Z" transform="translate(0 0.889)"/>
	    <path id="Shape-2" data-name="Shape" d="M2.5,5A2.5,2.5,0,1,1,5,2.5,2.5,2.5,0,0,1,2.5,5Zm0-3.637A1.136,1.136,0,1,0,3.636,2.5,1.138,1.138,0,0,0,2.5,1.363Z" transform="translate(38 25.889)"/>
	  </g>
	</g>
</svg>
