<svg xmlns="http://www.w3.org/2000/svg" width="44" height="48" viewBox="0 0 44 48">
  <g id="dress" transform="translate(0 -0.931)">
    <path id="Shape" d="M22,48a31.218,31.218,0,0,1-10.192-1.747.72.72,0,0,1-.418-.371.7.7,0,0,1-.028-.539.729.729,0,0,1,.687-.477.742.742,0,0,1,.243.041A29.734,29.734,0,0,0,22,46.573a30.446,30.446,0,0,0,15.2-4.2c-5.906-7.582-10.582-18.1-10.629-18.2a.7.7,0,0,1-.01-.541.714.714,0,0,1,.391-.4.74.74,0,0,1,.288-.058.728.728,0,0,1,.67.431l0,0A102.014,102.014,0,0,0,37.94,40.957a34.167,34.167,0,0,0,4.226-2.5c-7-7.062-12.67-16.6-13.736-18.435H15.569C14.5,21.861,8.827,31.4,1.834,38.455a34.508,34.508,0,0,0,4.226,2.5A102.06,102.06,0,0,0,16.083,23.614l0,0a.729.729,0,0,1,.67-.431.74.74,0,0,1,.288.058.714.714,0,0,1,.391.4.7.7,0,0,1-.01.541c-.045.1-4.716,10.616-10.63,18.205A27.481,27.481,0,0,0,9.65,43.861a.712.712,0,0,1,.381.4.7.7,0,0,1-.023.543.733.733,0,0,1-.663.415.757.757,0,0,1-.3-.065,24.845,24.845,0,0,1-3.733-2.024.715.715,0,0,1-.3-.48.7.7,0,0,1,.149-.542A31.555,31.555,0,0,1,.267,39.088.709.709,0,0,1,0,38.571a.7.7,0,0,1,.212-.54c7.437-7.275,13.529-17.74,14.2-18.909V15.979c0-2.2-1.648-8.314-1.665-8.374a.7.7,0,0,1,.017-.422A3.681,3.681,0,0,1,14.318,5.22,7.3,7.3,0,0,1,16.754.172.74.74,0,0,1,17.348.01a.728.728,0,0,1,.508.34A12.748,12.748,0,0,1,19.5,5.114l.053.017c.093.03.189.06.284.093a17.032,17.032,0,0,1,2.162.9,17.018,17.018,0,0,1,2.16-.9c.087-.03.174-.058.26-.085l.077-.025A12.745,12.745,0,0,1,26.143.35a.727.727,0,0,1,.508-.34.74.74,0,0,1,.594.162A7.294,7.294,0,0,1,29.681,5.22a3.674,3.674,0,0,1,1.553,1.963.7.7,0,0,1,.019.422c0,.013-.311,1.146-.659,2.6a.724.724,0,0,1-.71.551.751.751,0,0,1-.166-.019.725.725,0,0,1-.458-.325.7.7,0,0,1-.088-.533c.288-1.21.539-2.158.609-2.419a2.146,2.146,0,0,0-1.271-1.224,3.479,3.479,0,0,0-1.183-.184,12.029,12.029,0,0,0-4.968,1.5.743.743,0,0,1-.723,0,12.014,12.014,0,0,0-4.967-1.5,3.481,3.481,0,0,0-1.182.184,2.14,2.14,0,0,0-1.27,1.224,60.4,60.4,0,0,1,1.616,7.8H28.163a25.581,25.581,0,0,1,.4-2.574.726.726,0,0,1,.716-.581.753.753,0,0,1,.138.013.724.724,0,0,1,.471.305.7.7,0,0,1,.109.53,17.974,17.974,0,0,0-.4,3.02v3.144c.668,1.167,6.744,11.618,14.2,18.909a.7.7,0,0,1-.054,1.057,31.453,31.453,0,0,1-4.893,3.022.7.7,0,0,1-.147,1.023A31.324,31.324,0,0,1,22,48ZM15.872,16.692v1.9H28.129v-1.9ZM26.953,1.924h0a10.89,10.89,0,0,0-.941,2.821,7.945,7.945,0,0,1,1.3-.115,5.708,5.708,0,0,1,.833.059,6.029,6.029,0,0,0-1.194-2.765ZM16.685,4.63a7.945,7.945,0,0,1,1.3.115,10.917,10.917,0,0,0-.941-2.821,6.028,6.028,0,0,0-1.2,2.765A5.715,5.715,0,0,1,16.685,4.63Z" transform="translate(0 0.93)"/>
  </g>
</svg>
