<svg xmlns="http://www.w3.org/2000/svg" width="26" height="26" viewBox="0 0 26 26"><g><g><g><path fill="#f0f0f0" d="M13 26c7.18 0 13-5.82 13-13S20.18 0 13 0 0 5.82 0 13s5.82 13 13 13z"/></g><g><g><path fill="#338af3" d="M13 0C7.846 0 3.393 3 1.29 7.348h23.42C22.607 2.999 18.154 0 13 0z"/></g><g><path fill="#338af3" d="M13 25.998c5.154 0 9.607-3 11.71-7.348H1.29c2.103 4.348 6.556 7.348 11.71 7.348z"/></g></g><g><path fill="#ffda44" d="M16.881 12.996l-1.588.747.846 1.538-1.724-.33-.219 1.741-1.2-1.28-1.201 1.28-.219-1.741-1.724.33.846-1.538-1.588-.747 1.588-.747-.846-1.537 1.724.33.219-1.742 1.2 1.28 1.201-1.28.219 1.742 1.724-.33-.846 1.537z"/></g></g></g></svg>