<svg xmlns="http://www.w3.org/2000/svg" width="26" height="26" viewBox="0 0 26 26"><g><g><g><path fill="#0052b4" d="M26 13.05c0 7.18-5.82 13-13 13s-13-5.82-13-13c0 .003 13-12.999 13-13 7.18 0 13 5.82 13 13z"/></g><g><g><path fill="#f0f0f0" d="M13.022.08h-.004.004z"/></g><g><path fill="#f0f0f0" d="M12.976 13.094h.068v-.068a22.12 22.12 0 0 1-.068.068z"/></g><g><path fill="#f0f0f0" d="M13 6.833V.05h-.002C5.819.051 0 5.87 0 13.05h6.783V9.23l3.819 3.82h2.363l.035-.035v-2.363l-3.82-3.82z"/></g></g><g><g><path fill="#d80027" d="M6.581 1.75A13.062 13.062 0 0 0 1.7 6.631v6.423h3.391V5.141h7.913V1.75z"/></g><g><path fill="#d80027" d="M12.997 11.449L8.38 6.83H6.78l6.217 6.217V11.45z"/></g></g><g><g><path fill="#f0f0f0" d="M7.839 15.31l.713 1.492 1.611-.373-.721 1.488 1.295 1.028-1.613.364.005 1.653-1.29-1.034-1.29 1.034.004-1.653-1.613-.364 1.296-1.028-.722-1.488 1.611.373z"/></g><g><path fill="#f0f0f0" d="M19.46 18.14l.356.746.806-.186-.361.744.648.513-.807.182.002.827-.645-.517-.645.517.003-.827-.807-.182.648-.513-.36-.744.805.186z"/></g><g><path fill="#f0f0f0" d="M16.15 10.22l.356.746.806-.186-.361.744.648.513-.807.182.002.827-.645-.517-.645.517.003-.827-.807-.182.648-.513-.36-.744.805.186z"/></g><g><path fill="#f0f0f0" d="M19.46 5.7l.356.746.806-.186-.361.744.648.513-.807.182.002.827-.645-.517-.645.517.003-.827-.807-.182.648-.513-.36-.744.805.186z"/></g><g><path fill="#f0f0f0" d="M22.36 9.09l.356.746.806-.186-.361.744.648.513-.807.182.002.827-.645-.517-.645.517.003-.827-.807-.182.648-.513-.36-.744.805.186z"/></g><g><path fill="#f0f0f0" d="M20.289 13.05l.28.864h.908l-.734.533.28.864-.734-.534-.735.534.28-.864-.734-.533h.908z"/></g></g></g></g></svg>