<svg xmlns="http://www.w3.org/2000/svg" width="26" height="26" viewBox="0 0 26 26"><g><g><g><path fill="#ffda44" d="M17.524.809A12.972 12.972 0 0 0 13.002 0C11.412 0 9.89.286 8.48.809L7.35 13l1.13 12.191a12.97 12.97 0 0 0 4.522.809c1.59 0 3.114-.286 4.522-.809L18.654 13z"/></g><g><path fill="#d80027" d="M25.998 13.001c0-5.59-3.528-10.354-8.478-12.191v24.383c4.95-1.837 8.478-6.602 8.478-12.192z"/></g><g><path d="M0 13.001c0 5.59 3.528 10.355 8.478 12.192V.81C3.528 2.647 0 7.412 0 13.001z"/></g></g></g></svg>