<svg xmlns="http://www.w3.org/2000/svg" width="26" height="26" viewBox="0 0 26 26"><g><g><g><path fill="#6da544" d="M13 26c7.18 0 13-5.82 13-13S20.18 0 13 0 0 5.82 0 13s5.82 13 13 13z"/></g><g><path fill="#ffda44" d="M13 5.09l10.738 7.913L13 20.916 2.26 13.003z"/></g><g><path fill="#f0f0f0" d="M13.002 17.523a4.522 4.522 0 1 0 0-9.043 4.522 4.522 0 0 0 0 9.043z"/></g><g><g><path fill="#0052b4" d="M10.74 12.72c-.787 0-1.546.12-2.26.342a4.521 4.521 0 0 0 8.223 2.534 7.62 7.62 0 0 0-5.964-2.876z"/></g><g><path fill="#0052b4" d="M17.433 13.868a4.522 4.522 0 0 0-8.593-2.651 9.299 9.299 0 0 1 8.593 2.651z"/></g></g></g></g></svg>